solid OpenSCAD_Model
  facet normal -1 0 0
    outer loop
      vertex 0 0 0
      vertex 0 43.1 2
      vertex 0 43.1 0
    endloop
  endfacet
  facet normal -1 -0 0
    outer loop
      vertex 0 43.1 2
      vertex 0 0 0
      vertex 0 0 2
    endloop
  endfacet
  facet normal -0 0 1
    outer loop
      vertex 29.55 37.1 2
      vertex 88.65 6 2
      vertex 88.65 37.1 2
    endloop
  endfacet
  facet normal 0 0 1
    outer loop
      vertex 88.65 6 2
      vertex 29.55 37.1 2
      vertex 29.55 6 2
    endloop
  endfacet
  facet normal 0 0 1
    outer loop
      vertex 118.2 43.1 2
      vertex 115.2 32.325 2
      vertex 118.2 0 2
    endloop
  endfacet
  facet normal 0 0 1
    outer loop
      vertex 118.2 43.1 2
      vertex 112.2 32.325 2
      vertex 115.2 32.325 2
    endloop
  endfacet
  facet normal -0 0 1
    outer loop
      vertex 88.65 37.1 2
      vertex 112.2 32.325 2
      vertex 88.65 40.1 2
    endloop
  endfacet
  facet normal 0 0 1
    outer loop
      vertex 118.2 43.1 2
      vertex 88.65 40.1 2
      vertex 112.2 32.325 2
    endloop
  endfacet
  facet normal 0 0 1
    outer loop
      vertex 118.2 43.1 2
      vertex 29.55 40.1 2
      vertex 88.65 40.1 2
    endloop
  endfacet
  facet normal 0 0 1
    outer loop
      vertex 6 32.325 2
      vertex 29.55 37.1 2
      vertex 29.55 40.1 2
    endloop
  endfacet
  facet normal 0 0 1
    outer loop
      vertex 29.55 37.1 2
      vertex 6 32.325 2
      vertex 29.55 6 2
    endloop
  endfacet
  facet normal -0 0 1
    outer loop
      vertex 6 10.775 2
      vertex 29.55 6 2
      vertex 6 32.325 2
    endloop
  endfacet
  facet normal 0 0 1
    outer loop
      vertex 0 43.1 2
      vertex 6 32.325 2
      vertex 29.55 40.1 2
    endloop
  endfacet
  facet normal 0 0 1
    outer loop
      vertex 3 32.325 2
      vertex 0 43.1 2
      vertex 3 10.775 2
    endloop
  endfacet
  facet normal 0 0 1
    outer loop
      vertex 6 32.325 2
      vertex 0 43.1 2
      vertex 3 32.325 2
    endloop
  endfacet
  facet normal -0 0 1
    outer loop
      vertex 0 43.1 2
      vertex 29.55 40.1 2
      vertex 118.2 43.1 2
    endloop
  endfacet
  facet normal -0 0 1
    outer loop
      vertex 115.2 10.775 2
      vertex 118.2 0 2
      vertex 115.2 32.325 2
    endloop
  endfacet
  facet normal -0 0 1
    outer loop
      vertex 112.2 10.775 2
      vertex 118.2 0 2
      vertex 115.2 10.775 2
    endloop
  endfacet
  facet normal 0 0 1
    outer loop
      vertex 112.2 32.325 2
      vertex 88.65 37.1 2
      vertex 112.2 10.775 2
    endloop
  endfacet
  facet normal 0 0 1
    outer loop
      vertex 88.65 6 2
      vertex 112.2 10.775 2
      vertex 88.65 37.1 2
    endloop
  endfacet
  facet normal 0 0 1
    outer loop
      vertex 88.65 3 2
      vertex 112.2 10.775 2
      vertex 88.65 6 2
    endloop
  endfacet
  facet normal 0 0 1
    outer loop
      vertex 112.2 10.775 2
      vertex 88.65 3 2
      vertex 118.2 0 2
    endloop
  endfacet
  facet normal -0 0 1
    outer loop
      vertex 29.55 3 2
      vertex 118.2 0 2
      vertex 88.65 3 2
    endloop
  endfacet
  facet normal 0 0 1
    outer loop
      vertex 29.55 6 2
      vertex 6 10.775 2
      vertex 29.55 3 2
    endloop
  endfacet
  facet normal 0 0 1
    outer loop
      vertex 0 0 2
      vertex 6 10.775 2
      vertex 3 10.775 2
    endloop
  endfacet
  facet normal 0 0 1
    outer loop
      vertex 29.55 3 2
      vertex 0 0 2
      vertex 118.2 0 2
    endloop
  endfacet
  facet normal 0 0 1
    outer loop
      vertex 6 10.775 2
      vertex 0 0 2
      vertex 29.55 3 2
    endloop
  endfacet
  facet normal 0 0 1
    outer loop
      vertex 0 0 2
      vertex 3 10.775 2
      vertex 0 43.1 2
    endloop
  endfacet
  facet normal 1 -0 0
    outer loop
      vertex 118.2 0 2
      vertex 118.2 43.1 0
      vertex 118.2 43.1 2
    endloop
  endfacet
  facet normal 1 0 0
    outer loop
      vertex 118.2 43.1 0
      vertex 118.2 0 2
      vertex 118.2 0 0
    endloop
  endfacet
  facet normal 0 0 -1
    outer loop
      vertex 0 0 0
      vertex 118.2 43.1 0
      vertex 118.2 0 0
    endloop
  endfacet
  facet normal -0 0 -1
    outer loop
      vertex 118.2 43.1 0
      vertex 0 0 0
      vertex 0 43.1 0
    endloop
  endfacet
  facet normal 0 -1 0
    outer loop
      vertex 0 0 0
      vertex 118.2 0 2
      vertex 0 0 2
    endloop
  endfacet
  facet normal 0 -1 -0
    outer loop
      vertex 118.2 0 2
      vertex 0 0 0
      vertex 118.2 0 0
    endloop
  endfacet
  facet normal 0 1 -0
    outer loop
      vertex 118.2 43.1 0
      vertex 0 43.1 2
      vertex 118.2 43.1 2
    endloop
  endfacet
  facet normal 0 1 0
    outer loop
      vertex 0 43.1 2
      vertex 118.2 43.1 0
      vertex 0 43.1 0
    endloop
  endfacet
  facet normal -1 0 0
    outer loop
      vertex 3 10.775 2
      vertex 3 32.325 6
      vertex 3 32.325 2
    endloop
  endfacet
  facet normal -1 -0 0
    outer loop
      vertex 3 32.325 6
      vertex 3 10.775 2
      vertex 3 10.775 6
    endloop
  endfacet
  facet normal -0 0 1
    outer loop
      vertex 3 32.325 6
      vertex 6 10.775 6
      vertex 6 32.325 6
    endloop
  endfacet
  facet normal 0 0 1
    outer loop
      vertex 6 10.775 6
      vertex 3 32.325 6
      vertex 3 10.775 6
    endloop
  endfacet
  facet normal 1 -0 0
    outer loop
      vertex 6 10.775 6
      vertex 6 32.325 2
      vertex 6 32.325 6
    endloop
  endfacet
  facet normal 1 0 0
    outer loop
      vertex 6 32.325 2
      vertex 6 10.775 6
      vertex 6 10.775 2
    endloop
  endfacet
  facet normal 0 -1 0
    outer loop
      vertex 3 10.775 2
      vertex 6 10.775 6
      vertex 3 10.775 6
    endloop
  endfacet
  facet normal 0 -1 -0
    outer loop
      vertex 6 10.775 6
      vertex 3 10.775 2
      vertex 6 10.775 2
    endloop
  endfacet
  facet normal 0 1 -0
    outer loop
      vertex 6 32.325 2
      vertex 3 32.325 6
      vertex 6 32.325 6
    endloop
  endfacet
  facet normal 0 1 0
    outer loop
      vertex 3 32.325 6
      vertex 6 32.325 2
      vertex 3 32.325 2
    endloop
  endfacet
  facet normal -1 0 0
    outer loop
      vertex 112.2 10.775 2
      vertex 112.2 32.325 6
      vertex 112.2 32.325 2
    endloop
  endfacet
  facet normal -1 -0 0
    outer loop
      vertex 112.2 32.325 6
      vertex 112.2 10.775 2
      vertex 112.2 10.775 6
    endloop
  endfacet
  facet normal -0 0 1
    outer loop
      vertex 112.2 32.325 6
      vertex 115.2 10.775 6
      vertex 115.2 32.325 6
    endloop
  endfacet
  facet normal 0 0 1
    outer loop
      vertex 115.2 10.775 6
      vertex 112.2 32.325 6
      vertex 112.2 10.775 6
    endloop
  endfacet
  facet normal 1 -0 0
    outer loop
      vertex 115.2 10.775 6
      vertex 115.2 32.325 2
      vertex 115.2 32.325 6
    endloop
  endfacet
  facet normal 1 0 0
    outer loop
      vertex 115.2 32.325 2
      vertex 115.2 10.775 6
      vertex 115.2 10.775 2
    endloop
  endfacet
  facet normal 0 1 -0
    outer loop
      vertex 115.2 32.325 2
      vertex 112.2 32.325 6
      vertex 115.2 32.325 6
    endloop
  endfacet
  facet normal 0 1 0
    outer loop
      vertex 112.2 32.325 6
      vertex 115.2 32.325 2
      vertex 112.2 32.325 2
    endloop
  endfacet
  facet normal 0 -1 0
    outer loop
      vertex 112.2 10.775 2
      vertex 115.2 10.775 6
      vertex 112.2 10.775 6
    endloop
  endfacet
  facet normal 0 -1 -0
    outer loop
      vertex 115.2 10.775 6
      vertex 112.2 10.775 2
      vertex 115.2 10.775 2
    endloop
  endfacet
  facet normal -1 0 0
    outer loop
      vertex 29.55 3 2
      vertex 29.55 6 6
      vertex 29.55 6 2
    endloop
  endfacet
  facet normal -1 -0 0
    outer loop
      vertex 29.55 6 6
      vertex 29.55 3 2
      vertex 29.55 3 6
    endloop
  endfacet
  facet normal -0 0 1
    outer loop
      vertex 29.55 6 6
      vertex 88.65 3 6
      vertex 88.65 6 6
    endloop
  endfacet
  facet normal 0 0 1
    outer loop
      vertex 88.65 3 6
      vertex 29.55 6 6
      vertex 29.55 3 6
    endloop
  endfacet
  facet normal 1 -0 0
    outer loop
      vertex 88.65 3 6
      vertex 88.65 6 2
      vertex 88.65 6 6
    endloop
  endfacet
  facet normal 1 0 0
    outer loop
      vertex 88.65 6 2
      vertex 88.65 3 6
      vertex 88.65 3 2
    endloop
  endfacet
  facet normal 0 -1 0
    outer loop
      vertex 29.55 3 2
      vertex 88.65 3 6
      vertex 29.55 3 6
    endloop
  endfacet
  facet normal 0 -1 -0
    outer loop
      vertex 88.65 3 6
      vertex 29.55 3 2
      vertex 88.65 3 2
    endloop
  endfacet
  facet normal 0 1 -0
    outer loop
      vertex 88.65 6 2
      vertex 29.55 6 6
      vertex 88.65 6 6
    endloop
  endfacet
  facet normal 0 1 0
    outer loop
      vertex 29.55 6 6
      vertex 88.65 6 2
      vertex 29.55 6 2
    endloop
  endfacet
  facet normal -1 0 0
    outer loop
      vertex 29.55 37.1 2
      vertex 29.55 40.1 6
      vertex 29.55 40.1 2
    endloop
  endfacet
  facet normal -1 -0 0
    outer loop
      vertex 29.55 40.1 6
      vertex 29.55 37.1 2
      vertex 29.55 37.1 6
    endloop
  endfacet
  facet normal -0 0 1
    outer loop
      vertex 29.55 40.1 6
      vertex 88.65 37.1 6
      vertex 88.65 40.1 6
    endloop
  endfacet
  facet normal 0 0 1
    outer loop
      vertex 88.65 37.1 6
      vertex 29.55 40.1 6
      vertex 29.55 37.1 6
    endloop
  endfacet
  facet normal 1 -0 0
    outer loop
      vertex 88.65 37.1 6
      vertex 88.65 40.1 2
      vertex 88.65 40.1 6
    endloop
  endfacet
  facet normal 1 0 0
    outer loop
      vertex 88.65 40.1 2
      vertex 88.65 37.1 6
      vertex 88.65 37.1 2
    endloop
  endfacet
  facet normal 0 1 -0
    outer loop
      vertex 88.65 40.1 2
      vertex 29.55 40.1 6
      vertex 88.65 40.1 6
    endloop
  endfacet
  facet normal 0 1 0
    outer loop
      vertex 29.55 40.1 6
      vertex 88.65 40.1 2
      vertex 29.55 40.1 2
    endloop
  endfacet
  facet normal 0 -1 0
    outer loop
      vertex 29.55 37.1 2
      vertex 88.65 37.1 6
      vertex 29.55 37.1 6
    endloop
  endfacet
  facet normal 0 -1 -0
    outer loop
      vertex 88.65 37.1 6
      vertex 29.55 37.1 2
      vertex 88.65 37.1 2
    endloop
  endfacet
endsolid OpenSCAD_Model
