solid OpenSCAD_Model
  facet normal -1 0 0
    outer loop
      vertex 0 0 0
      vertex 0 22.35 3
      vertex 0 22.35 0
    endloop
  endfacet
  facet normal -1 -0 0
    outer loop
      vertex 0 22.35 3
      vertex 0 0 0
      vertex 0 0 3
    endloop
  endfacet
  facet normal 0 0 1
    outer loop
      vertex 28.8 22.35 3
      vertex 26.8 20.35 3
      vertex 28.8 0 3
    endloop
  endfacet
  facet normal 0 0 1
    outer loop
      vertex 28.8 22.35 3
      vertex 24.3 20.35 3
      vertex 26.8 20.35 3
    endloop
  endfacet
  facet normal 0 0 1
    outer loop
      vertex 28.8 22.35 3
      vertex 4.5 20.35 3
      vertex 24.3 20.35 3
    endloop
  endfacet
  facet normal -0 0 1
    outer loop
      vertex 0 22.35 3
      vertex 4.5 20.35 3
      vertex 28.8 22.35 3
    endloop
  endfacet
  facet normal 0 0 1
    outer loop
      vertex 2 20.35 3
      vertex 0 22.35 3
      vertex 2 2 3
    endloop
  endfacet
  facet normal 0 0 1
    outer loop
      vertex 4.5 20.35 3
      vertex 0 22.35 3
      vertex 2 20.35 3
    endloop
  endfacet
  facet normal -0 0 1
    outer loop
      vertex 26.8 2 3
      vertex 28.8 0 3
      vertex 26.8 20.35 3
    endloop
  endfacet
  facet normal -0 0 1
    outer loop
      vertex 24.3 2 3
      vertex 28.8 0 3
      vertex 26.8 2 3
    endloop
  endfacet
  facet normal -0 0 1
    outer loop
      vertex 4.5 2 3
      vertex 28.8 0 3
      vertex 24.3 2 3
    endloop
  endfacet
  facet normal 0 0 1
    outer loop
      vertex 0 0 3
      vertex 4.5 2 3
      vertex 2 2 3
    endloop
  endfacet
  facet normal 0 0 1
    outer loop
      vertex 4.5 2 3
      vertex 0 0 3
      vertex 28.8 0 3
    endloop
  endfacet
  facet normal 0 0 1
    outer loop
      vertex 0 0 3
      vertex 2 2 3
      vertex 0 22.35 3
    endloop
  endfacet
  facet normal 1 -0 0
    outer loop
      vertex 28.8 0 3
      vertex 28.8 22.35 0
      vertex 28.8 22.35 3
    endloop
  endfacet
  facet normal 1 0 0
    outer loop
      vertex 28.8 22.35 0
      vertex 28.8 0 3
      vertex 28.8 0 0
    endloop
  endfacet
  facet normal 0 1 -0
    outer loop
      vertex 28.8 22.35 0
      vertex 0 22.35 3
      vertex 28.8 22.35 3
    endloop
  endfacet
  facet normal 0 1 0
    outer loop
      vertex 0 22.35 3
      vertex 28.8 22.35 0
      vertex 0 22.35 0
    endloop
  endfacet
  facet normal 0 0 -1
    outer loop
      vertex 0 0 0
      vertex 28.8 22.35 0
      vertex 28.8 0 0
    endloop
  endfacet
  facet normal -0 0 -1
    outer loop
      vertex 28.8 22.35 0
      vertex 0 0 0
      vertex 0 22.35 0
    endloop
  endfacet
  facet normal 0 -1 0
    outer loop
      vertex 0 0 0
      vertex 28.8 0 3
      vertex 0 0 3
    endloop
  endfacet
  facet normal 0 -1 -0
    outer loop
      vertex 28.8 0 3
      vertex 0 0 0
      vertex 28.8 0 0
    endloop
  endfacet
  facet normal 1 -0 0
    outer loop
      vertex 2 2 3
      vertex 2 20.35 2
      vertex 2 20.35 3
    endloop
  endfacet
  facet normal 1 0 0
    outer loop
      vertex 2 20.35 2
      vertex 2 2 3
      vertex 2 2 2
    endloop
  endfacet
  facet normal -1 0 0
    outer loop
      vertex 26.8 2 2
      vertex 26.8 20.35 3
      vertex 26.8 20.35 2
    endloop
  endfacet
  facet normal -1 -0 0
    outer loop
      vertex 26.8 20.35 3
      vertex 26.8 2 2
      vertex 26.8 2 3
    endloop
  endfacet
  facet normal 0 1 -0
    outer loop
      vertex 24.3 20.35 3
      vertex 4.5 20.35 8
      vertex 24.3 20.35 8
    endloop
  endfacet
  facet normal 0 1 0
    outer loop
      vertex 4.5 20.35 8
      vertex 24.3 20.35 3
      vertex 4.5 20.35 3
    endloop
  endfacet
  facet normal 0 -1 0
    outer loop
      vertex 2 20.35 2
      vertex 4.5 20.35 3
      vertex 2 20.35 3
    endloop
  endfacet
  facet normal 0 -1 -0
    outer loop
      vertex 4.5 20.35 3
      vertex 2 20.35 2
      vertex 4.5 20.35 2
    endloop
  endfacet
  facet normal 0 -1 0
    outer loop
      vertex 24.3 20.35 2
      vertex 26.8 20.35 3
      vertex 24.3 20.35 3
    endloop
  endfacet
  facet normal 0 -1 -0
    outer loop
      vertex 26.8 20.35 3
      vertex 24.3 20.35 2
      vertex 26.8 20.35 2
    endloop
  endfacet
  facet normal -0 0 1
    outer loop
      vertex 2 20.35 2
      vertex 4.5 18.35 2
      vertex 4.5 20.35 2
    endloop
  endfacet
  facet normal 0 0 1
    outer loop
      vertex 4.5 18.35 2
      vertex 2 20.35 2
      vertex 4.5 4 2
    endloop
  endfacet
  facet normal 0 0 1
    outer loop
      vertex 2 2 2
      vertex 4.5 4 2
      vertex 2 20.35 2
    endloop
  endfacet
  facet normal 0 0 1
    outer loop
      vertex 4.5 4 2
      vertex 2 2 2
      vertex 4.5 2 2
    endloop
  endfacet
  facet normal -0 0 1
    outer loop
      vertex 4.5 18.35 2
      vertex 24.3 4 2
      vertex 24.3 18.35 2
    endloop
  endfacet
  facet normal 0 0 1
    outer loop
      vertex 24.3 4 2
      vertex 4.5 18.35 2
      vertex 4.5 4 2
    endloop
  endfacet
  facet normal 0 0 1
    outer loop
      vertex 24.3 18.35 2
      vertex 26.8 20.35 2
      vertex 24.3 20.35 2
    endloop
  endfacet
  facet normal 0 0 1
    outer loop
      vertex 26.8 20.35 2
      vertex 24.3 18.35 2
      vertex 26.8 2 2
    endloop
  endfacet
  facet normal -0 0 1
    outer loop
      vertex 24.3 4 2
      vertex 26.8 2 2
      vertex 24.3 18.35 2
    endloop
  endfacet
  facet normal 0 0 1
    outer loop
      vertex 26.8 2 2
      vertex 24.3 4 2
      vertex 24.3 2 2
    endloop
  endfacet
  facet normal 0 -1 0
    outer loop
      vertex 4.5 2 3
      vertex 24.3 2 8
      vertex 4.5 2 8
    endloop
  endfacet
  facet normal 0 -1 -0
    outer loop
      vertex 24.3 2 8
      vertex 4.5 2 3
      vertex 24.3 2 3
    endloop
  endfacet
  facet normal 0 1 -0
    outer loop
      vertex 4.5 2 2
      vertex 2 2 3
      vertex 4.5 2 3
    endloop
  endfacet
  facet normal 0 1 0
    outer loop
      vertex 2 2 3
      vertex 4.5 2 2
      vertex 2 2 2
    endloop
  endfacet
  facet normal 0 1 -0
    outer loop
      vertex 26.8 2 2
      vertex 24.3 2 3
      vertex 26.8 2 3
    endloop
  endfacet
  facet normal 0 1 0
    outer loop
      vertex 24.3 2 3
      vertex 26.8 2 2
      vertex 24.3 2 2
    endloop
  endfacet
  facet normal -1 0 0
    outer loop
      vertex 4.5 2 3
      vertex 4.5 4 2
      vertex 4.5 2 2
    endloop
  endfacet
  facet normal -1 0 0
    outer loop
      vertex 4.5 4 2
      vertex 4.5 2 3
      vertex 4.5 4 8
    endloop
  endfacet
  facet normal -1 -0 0
    outer loop
      vertex 4.5 4 8
      vertex 4.5 2 3
      vertex 4.5 2 8
    endloop
  endfacet
  facet normal -0 0 1
    outer loop
      vertex 4.5 4 8
      vertex 24.3 2 8
      vertex 24.3 4 8
    endloop
  endfacet
  facet normal 0 0 1
    outer loop
      vertex 24.3 2 8
      vertex 4.5 4 8
      vertex 4.5 2 8
    endloop
  endfacet
  facet normal 1 0 0
    outer loop
      vertex 24.3 2 3
      vertex 24.3 4 8
      vertex 24.3 2 8
    endloop
  endfacet
  facet normal 1 0 0
    outer loop
      vertex 24.3 4 8
      vertex 24.3 2 3
      vertex 24.3 4 2
    endloop
  endfacet
  facet normal 1 0 0
    outer loop
      vertex 24.3 4 2
      vertex 24.3 2 3
      vertex 24.3 2 2
    endloop
  endfacet
  facet normal 0 1 -0
    outer loop
      vertex 24.3 4 2
      vertex 4.5 4 8
      vertex 24.3 4 8
    endloop
  endfacet
  facet normal 0 1 0
    outer loop
      vertex 4.5 4 8
      vertex 24.3 4 2
      vertex 4.5 4 2
    endloop
  endfacet
  facet normal -1 0 0
    outer loop
      vertex 4.5 18.35 2
      vertex 4.5 20.35 3
      vertex 4.5 20.35 2
    endloop
  endfacet
  facet normal -1 0 0
    outer loop
      vertex 4.5 18.35 8
      vertex 4.5 20.35 3
      vertex 4.5 18.35 2
    endloop
  endfacet
  facet normal -1 0 0
    outer loop
      vertex 4.5 20.35 3
      vertex 4.5 18.35 8
      vertex 4.5 20.35 8
    endloop
  endfacet
  facet normal -0 0 1
    outer loop
      vertex 4.5 20.35 8
      vertex 24.3 18.35 8
      vertex 24.3 20.35 8
    endloop
  endfacet
  facet normal 0 0 1
    outer loop
      vertex 24.3 18.35 8
      vertex 4.5 20.35 8
      vertex 4.5 18.35 8
    endloop
  endfacet
  facet normal 1 -0 0
    outer loop
      vertex 24.3 18.35 8
      vertex 24.3 20.35 3
      vertex 24.3 20.35 8
    endloop
  endfacet
  facet normal 1 0 0
    outer loop
      vertex 24.3 18.35 2
      vertex 24.3 20.35 3
      vertex 24.3 18.35 8
    endloop
  endfacet
  facet normal 1 0 0
    outer loop
      vertex 24.3 20.35 3
      vertex 24.3 18.35 2
      vertex 24.3 20.35 2
    endloop
  endfacet
  facet normal 0 -1 0
    outer loop
      vertex 4.5 18.35 2
      vertex 24.3 18.35 8
      vertex 4.5 18.35 8
    endloop
  endfacet
  facet normal 0 -1 -0
    outer loop
      vertex 24.3 18.35 8
      vertex 4.5 18.35 2
      vertex 24.3 18.35 2
    endloop
  endfacet
endsolid OpenSCAD_Model
